<svg width="92" height="92" viewBox="0 0 92 92" fill="none" xmlns="http://www.w3.org/2000/svg">
<path opacity="0.5" d="M46 0C20.6341 0 0 20.636 0 46C0 71.364 20.6341 92 46 92C71.3659 92 92 71.364 92 46C92 20.636 71.3659 0 46 0ZM46 88.1667C22.7492 88.1667 3.83327 69.2508 3.83327 46C3.83327 22.7492 22.7492 3.83327 46 3.83327C69.2508 3.83327 88.1667 22.7492 88.1667 46C88.1667 69.2508 69.2508 88.1667 46 88.1667Z" fill="white"/>
<path opacity="0.85" d="M64.287 44.3884L37.4537 27.1384C36.8659 26.7547 36.106 26.7341 35.4996 27.0672C34.8818 27.4041 34.5 28.0481 34.5 28.75V63.25C34.5 63.9518 34.8818 64.5958 35.4996 64.9327C35.784 65.0882 36.1023 65.1667 36.4167 65.1667C36.7761 65.1667 37.1393 65.0655 37.4537 64.8616L64.287 47.6116C64.8336 47.2598 65.1667 46.6513 65.1667 46C65.1667 45.3486 64.8336 44.7404 64.287 44.3884ZM38.3333 59.7385V32.2614L59.7049 46L38.3333 59.7385Z" fill="white"/>
</svg>
