<svg width="18" height="18" viewBox="0 0 18 18" fill="none" xmlns="http://www.w3.org/2000/svg">
<path opacity="0.6" d="M1.99997 0C0.894988 0 0 0.895 0 2V16C0 17.105 0.894988 18 1.99997 18H15.9998C17.1048 18 17.9998 17.105 17.9998 16V2C17.9998 0.895 17.1048 0 15.9998 0H1.99997ZM1.99997 2H15.9998V16H1.99997V2ZM8.7909 5.85742C8.2009 5.85242 7.70086 5.86005 7.41787 5.99805C7.22987 6.09005 7.08473 6.29659 7.17373 6.30859C7.28273 6.32259 7.52901 6.37469 7.66201 6.55469C7.831 6.78569 7.82607 7.30469 7.82607 7.30469C7.82607 7.30469 7.92255 8.73216 7.59755 8.91016C7.37456 9.03216 7.06901 8.78444 6.41202 7.64844C6.07503 7.06544 5.82219 6.42188 5.82219 6.42188C5.82219 6.42188 5.77247 6.30033 5.68547 6.23633C5.57847 6.15833 5.42961 6.13281 5.42961 6.13281L3.85932 6.14062C3.85932 6.14062 3.62211 6.14114 3.53511 6.24414C3.45811 6.33614 3.52925 6.51758 3.52925 6.51758C3.52925 6.51758 4.76023 9.38684 6.15421 10.8398C7.4332 12.1718 8.88269 12.0508 8.88269 12.0508H9.54089C9.54089 12.0508 9.74066 12.0621 9.84166 11.9531C9.93466 11.8521 9.93151 11.6953 9.93151 11.6953C9.93151 11.6953 9.91899 10.8116 10.328 10.6816C10.732 10.5536 11.2497 11.5351 11.7987 11.9121C12.2127 12.1981 12.5291 12.1367 12.5291 12.1367L13.9979 12.1172C13.9979 12.1172 14.7651 12.0689 14.4041 11.4609C14.3741 11.4109 14.1923 11.0133 13.3123 10.1953C12.3903 9.33931 12.5139 9.47709 13.6229 7.99609C14.2989 7.09509 14.5692 6.54459 14.4842 6.30859C14.4032 6.08259 13.9061 6.14258 13.9061 6.14258L12.2537 6.15234C12.2537 6.15234 12.1299 6.13445 12.0389 6.18945C11.9499 6.24345 11.8924 6.36719 11.8924 6.36719C11.8924 6.36719 11.6311 7.06616 11.2811 7.66016C10.5461 8.91316 10.2517 8.97839 10.1307 8.90039C9.85073 8.72039 9.92174 8.17416 9.92174 7.78516C9.92174 6.57116 10.1044 6.06459 9.56237 5.93359C9.38237 5.88959 9.25089 5.86242 8.7909 5.85742Z" fill="white"/>
</svg>
